<?xml version="1.0" standalone="no"?>
<!DOCTYPE svg PUBLIC "-//W3C//DTD SVG 20010904//EN"
 "http://www.w3.org/TR/2001/REC-SVG-20010904/DTD/svg10.dtd">
<svg version="1.0" xmlns="http://www.w3.org/2000/svg"
 width="1024.000000pt" height="1024.000000pt" viewBox="0 0 1024.000000 1024.000000"
 preserveAspectRatio="xMidYMid meet">
<metadata>
Created by potrace 1.11, written by Peter Selinger 2001-2013
</metadata>
<g transform="translate(0.000000,1024.000000) scale(0.100000,-0.100000)"
fill="#000000" stroke="none">
<path d="M1419 8621 c-163 -175 -398 -454 -399 -472 0 -4 6 -6 13 -6 27 3 147
-15 222 -34 241 -60 398 -201 470 -422 54 -166 56 -201 59 -1057 2 -388 6
-715 9 -727 3 -11 9 -43 13 -70 10 -74 61 -221 99 -288 68 -122 177 -219 310
-278 64 -27 172 -56 215 -57 38 0 50 -13 54 -54 3 -40 -5 -49 -44 -53 -192
-23 -385 -127 -483 -261 -73 -98 -133 -249 -153 -382 -3 -19 -8 -46 -11 -60
-3 -14 -7 -371 -8 -795 -2 -423 -6 -813 -9 -865 -14 -219 -85 -399 -201 -515
-123 -123 -244 -173 -509 -210 -22 -3 -41 -7 -42 -8 -2 -2 69 -93 173 -222 27
-34 165 -186 214 -237 l46 -47 92 24 c377 101 638 324 769 655 33 84 77 256
87 340 3 30 9 71 12 90 2 19 6 370 7 780 2 410 6 770 10 800 28 221 70 332
164 432 95 101 250 155 469 162 l48 1 3 373 2 372 -22 1 c-88 4 -137 9 -233
24 -93 16 -202 72 -265 139 -94 99 -135 210 -166 446 -4 30 -8 361 -10 735 -1
374 -5 690 -7 702 -3 12 -8 46 -12 75 -3 29 -7 60 -9 68 -1 8 -6 33 -10 55
-13 70 -56 197 -96 281 -98 212 -257 372 -471 476 -81 40 -219 93 -268 103 -9
2 -35 8 -57 13 -40 9 -43 8 -75 -27z"/>
<path d="M8680 8634 c-269 -72 -486 -207 -624 -387 -98 -130 -154 -251 -200
-434 -23 -95 -29 -131 -42 -258 -4 -33 -8 -357 -9 -720 -1 -363 -5 -685 -9
-715 -54 -409 -218 -566 -611 -585 -33 -2 -63 -4 -67 -4 -5 -1 -8 -169 -8
-374 l0 -374 43 0 c138 0 289 -32 376 -81 157 -86 236 -237 267 -512 4 -36 8
-391 9 -790 1 -399 5 -750 9 -780 23 -190 31 -232 72 -361 53 -170 136 -310
254 -430 148 -151 335 -252 578 -314 l63 -16 47 49 c108 110 397 451 389 458
-1 1 -24 5 -52 8 -245 31 -391 91 -508 209 -37 38 -72 78 -78 90 -5 12 -18 37
-30 56 -11 18 -31 66 -44 105 -21 64 -28 97 -50 241 -3 22 -6 391 -7 820 0
766 -3 834 -33 990 -27 133 -98 275 -184 364 -125 129 -211 170 -458 217 -20
4 -23 11 -23 49 0 25 3 45 8 46 90 10 222 48 302 87 114 56 224 169 283 293
41 85 74 193 93 304 3 22 8 348 10 725 3 655 7 855 18 910 3 14 11 50 17 80
43 207 161 367 334 450 105 51 202 75 380 95 11 1 22 3 23 4 7 2 -91 124 -226
281 -125 146 -198 223 -214 225 -7 1 -51 -9 -98 -21z"/>
<path d="M4225 7322 c-2 -2 10 -51 26 -110 16 -59 47 -174 69 -257 22 -82 47
-175 55 -205 9 -30 17 -62 19 -70 2 -8 16 -59 31 -113 14 -53 28 -105 30 -115
6 -28 94 -354 104 -387 5 -16 17 -58 27 -92 l17 -63 103 0 103 0 10 33 c72
243 137 465 151 517 68 245 145 489 151 483 4 -5 21 -55 37 -113 67 -233 221
-757 231 -782 6 -16 9 -28 7 -28 -2 0 5 -24 14 -52 l17 -53 104 0 104 0 32
115 c18 63 35 124 37 135 2 11 25 97 51 190 25 94 48 177 50 185 2 8 24 92 50
185 26 94 49 179 51 190 2 11 18 70 34 130 41 144 71 256 73 269 1 7 -40 10
-113 11 l-114 0 -33 -135 c-18 -74 -35 -144 -37 -155 -7 -28 -74 -311 -103
-430 -13 -55 -30 -127 -38 -160 -38 -163 -47 -195 -54 -195 -4 0 -22 57 -40
128 -18 70 -41 154 -51 187 -17 55 -149 537 -154 560 -3 12 -21 78 -42 150
l-14 51 -102 -1 -103 -1 -18 -64 c-10 -36 -20 -72 -22 -80 -14 -61 -247 -909
-253 -924 -10 -23 -12 -17 -72 239 -22 94 -61 256 -86 360 -25 105 -47 197
-49 205 -5 25 -56 234 -60 250 -4 13 -25 16 -116 15 -61 0 -112 -1 -114 -3z"/>
<path d="M4997 5499 c-78 -26 -125 -57 -177 -116 -227 -255 -49 -661 292 -665
235 -3 414 184 404 422 -8 206 -173 370 -380 376 -60 2 -96 -2 -139 -17z"/>
<path d="M4407 4595 c-2 -5 -3 -323 -3 -705 l1 -695 103 -3 102 -3 0 513 c0
299 4 508 9 502 5 -5 70 -155 146 -334 75 -179 143 -338 150 -355 7 -16 25
-59 40 -95 15 -36 38 -89 51 -118 13 -29 24 -57 24 -62 0 -5 39 -8 86 -8 l86
0 24 57 c14 31 29 65 34 76 5 11 70 166 146 345 75 179 152 362 171 408 19 45
39 84 43 87 5 3 8 -214 9 -482 0 -269 0 -498 0 -509 1 -21 6 -22 101 -22 95 0
100 1 101 22 4 96 -1 1379 -5 1383 -7 8 -235 10 -247 3 -4 -3 -76 -168 -159
-365 -83 -198 -155 -369 -160 -380 -11 -23 -88 -209 -116 -277 -10 -27 -22
-48 -25 -48 -4 0 -44 89 -89 198 -46 108 -125 298 -177 422 -91 218 -153 365
-177 423 -6 16 -19 27 -31 28 -124 5 -235 2 -238 -6z"/>
</g>
</svg>
