<?xml version="1.0" standalone="no"?>
<!DOCTYPE svg PUBLIC "-//W3C//DTD SVG 20010904//EN"
 "http://www.w3.org/TR/2001/REC-SVG-20010904/DTD/svg10.dtd">
<svg version="1.0" xmlns="http://www.w3.org/2000/svg"
 width="1423.000000pt" height="1423.000000pt" viewBox="0 0 1423.000000 1423.000000"
 preserveAspectRatio="xMidYMid meet">
<metadata>
Created by potrace 1.11, written by Peter Selinger 2001-2013
</metadata>
<g transform="translate(0.000000,1423.000000) scale(0.100000,-0.100000)"
fill="#000000" stroke="none">
<path d="M6645 14209 c-1477 -96 -2897 -656 -4040 -1594 -399 -327 -820 -762
-1132 -1167 -1290 -1679 -1761 -3823 -1298 -5909 96 -432 256 -914 441 -1326
594 -1328 1584 -2446 2833 -3197 1700 -1024 3763 -1285 5686 -721 837 246
1645 661 2347 1208 421 328 871 775 1209 1202 531 670 959 1480 1208 2285 709
2293 227 4784 -1284 6625 -1263 1539 -3077 2469 -5065 2595 -190 12 -714 11
-905 -1z m685 -3089 c723 -44 1375 -258 1974 -647 446 -290 844 -686 1140
-1133 363 -548 571 -1115 653 -1780 24 -204 24 -676 -1 -880 -98 -801 -374
-1465 -865 -2085 -123 -155 -441 -473 -601 -601 -879 -701 -1975 -1006 -3070
-853 -719 100 -1390 387 -1950 834 -588 469 -1063 1130 -1255 1746 l-26 86
-112 56 c-203 100 -364 215 -531 377 -118 114 -192 201 -278 325 -400 578
-485 1341 -223 1996 388 967 1403 1508 2426 1293 238 -50 516 -165 717 -297
498 -327 825 -825 938 -1424 25 -134 30 -485 10 -640 -48 -363 -185 -700 -409
-1003 -84 -113 -291 -324 -399 -405 -43 -31 -78 -63 -78 -69 0 -31 130 -204
235 -314 210 -219 377 -344 610 -457 290 -141 570 -206 890 -207 698 -1 1334
344 1722 933 234 356 358 836 324 1253 -53 649 -385 1215 -921 1569 -237 156
-508 260 -815 314 -188 32 -557 21 -731 -23 -18 -5 -27 3 -49 43 -379 670
-943 1130 -1665 1356 l-45 14 105 62 c705 415 1491 609 2280 561z"/>
</g>
</svg>
